<?xml version="1.0" encoding="utf-8"?>
<!-- Generator: Adobe Illustrator 23.0.4, SVG Export Plug-In . SVG Version: 6.00 Build 0)  -->
<svg version="1.1" id="Layer_1" xmlns="http://www.w3.org/2000/svg" xmlns:xlink="http://www.w3.org/1999/xlink" x="0px" y="0px"
	 viewBox="0 0 200 67" style="enable-background:new 0 0 200 67;" xml:space="preserve">
<style type="text/css">
	.st0{fill:#FFB624;}
</style>
<path id="Raven" class="st0" d="M178.1,7.3c-0.2-0.1-0.5-0.2-0.8-0.3c-0.4-0.1-0.8-0.2-1.2-0.2s-0.7,0.1-1.1,0.1
	c-0.1,0-0.3,0-0.4-0.1c-0.7-0.3-1.4-0.3-2.1-0.1c-0.4,0.2-0.8,0.4-1.2,0.7c-0.2,0.1-0.4,0.2-0.5,0.3s0,0.2-0.1,0.2
	c-0.7,0.5-1.3,1-2,1.5c-0.3,0.2-0.7,0.3-1.1,0.5c-0.3,0.2-0.7,0.2-1,0.6s-0.6,0.2-0.8,0.4c-0.8,0.4-1.7,0.8-2.5,1.2
	c-0.3,0.1-0.5,0.2-0.8,0.3c0,0.1,0.1,0.1,0.1,0.2c-0.6,0.1-1.1,0.2-1.6,0.4c-0.4,0.1-0.7,0.1-1.1,0.1c-0.5,0.1-1.1,0.3-1.6,0.6
	c-0.6,0.3-1.3,0.7-2,1.1l0.7,0.1l-0.8,0.4c-0.5,0.3-1,0.5-1.4,0.8c-0.3,0.2-0.5,0.4-0.8,0.5s-0.8,0.3-1.2,0.5
	c-0.5,0.2-1,0.4-1.5,0.7c-0.7,0.4-1.4,1-2,1.4c1.8,0.9,3.9,0.9,5.7,0.1c0.6-0.2,1.2-0.3,1.8-0.4c0.2,0,0.4,0.1,0.7,0.1
	c0.4,0,0.8,0,1.2,0h0.9c0.2,0,0.4,0,0.6,0c0.6-0.1,1.2-0.1,1.7,0l-0.3,0.6l0,0l0.7-0.4c-0.1,0.2-0.2,0.4-0.3,0.7l1-0.2l-0.4,0.7
	c0.7,0.3,0.9,0.1,1.7-0.9c-0.1,0.5-0.1,1,0.2,1.4c0.2,0.3,0.4,0.5,0.6,0.8l1.3,1.6c-0.4,0-0.9,0-1.3,0.1c-0.1,0-0.2,0.2-0.3,0.4
	l0.7-0.3c0,0.4,0.2,0.4,0.5,0.4c0.8,0,1.7,0,2.5,0.2c0.2,0.1,0.4,0.1,0.6,0.2c0.4,0.1,0.5,0.1,0.7-0.5c0.2,0.1,0.5,0.4,0.7,0.5l0,0
	c-0.1-0.1-0.1-0.2-0.2-0.4c-0.2-0.1-0.3-0.4-0.1-0.5s0.3,0,0.5,0c0.1,0,0.1,0,0.2,0.1c-0.2-0.3-0.6-0.4-0.9-0.3
	c-0.2,0.1-0.5,0.1-0.7,0c-0.1-0.1-0.4,0-0.5,0.1c-0.4,0.2-0.8,0.2-1-0.2c-0.4-0.7-0.9-1.4-1.3-2c0.1-0.3,0.2-0.7,0.3-1
	s0.3-0.5,0.6-0.5c0.1,0,0.2-0.1,0.2-0.2c0.1-0.1,0.2-0.2,0.3-0.2l-0.2,0.3c0.5-0.3,0.9-0.5,1.3-0.8s0.8-0.5,1.2-0.8s0.8-0.6,1.2-1
	c0.1-0.1,0.2-0.1,0.2-0.2c0.5-0.1,1-0.5,1.2-1c0.3-0.4,0.6-0.8,0.9-1.2c0.2-0.5,0.4-0.9,0.5-1.4c0.1-0.2,0.1-0.4,0.1-0.6l0.4,0.1v-1
	l0.4-0.1c0.1,0.2,0.1,0.3,0.2,0.5l0.1-0.2l0.2,0.2v-0.1c-0.1-0.4-0.2-0.8-0.3-1.1c0-0.3,0-0.7,0-1l0.2,0.2c-0.1-0.2-0.1-0.2-0.1-0.3
	c-0.3-0.5-0.1-1.1,0.4-1.3c0.1,0,0.1,0,0.2-0.1c0.8-0.4,1.8-0.6,2.7-0.5l0.1-0.1C178.4,7.6,178.3,7.4,178.1,7.3z M166.9,23l-0.4-0.2
	c-0.4-0.5-0.7-1.3-1.1-1.8c0,0,0.1,0.2,0.2,0.1C165.9,21.7,166.6,22.5,166.9,23z M173.1,7.8c-0.1,0-0.3-0.1-0.3-0.2
	c0.1-0.2,0.3-0.3,0.4-0.2l0,0c0.1,0,0.2,0,0.2,0.1S173.3,7.8,173.1,7.8z"/>
<path class="st0" d="M19.9,33.1c0.9,0.9,1.4,2.1,1.4,3.4c0,1-0.2,2-0.8,2.8c-0.5,0.8-1.2,1.5-2.1,2s-2,0.7-3,0.7
	c-0.7,0-1.4,0-2.1-0.1h-1c-0.4,0-0.8,0-1.2,0h-2c-0.4,0-0.9,0-1.5,0c0,0-0.1-0.1-0.1-0.2s0-0.2,0.1-0.2c0.5,0,1.1,0,1.6-0.2
	c0.3-0.1,0.6-0.3,0.7-0.6c0.2-0.4,0.2-0.8,0.2-1.3V26c0-0.4,0-0.9-0.2-1.3c-0.1-0.3-0.4-0.5-0.7-0.6C8.8,24,8.3,24,7.8,24
	c-0.1,0-0.1,0-0.1-0.2s0-0.2,0.1-0.2h1.4c0.8,0,1.5,0.1,2,0.1c0.4,0,0.7,0,1,0l0.8-0.1c0.6,0,1.2-0.1,1.7-0.1
	c1.3-0.1,2.6,0.3,3.7,1.1c0.8,0.7,1.3,1.7,1.2,2.8c0,0.9-0.3,1.8-0.9,2.5c-0.7,0.8-1.5,1.4-2.5,1.7C17.6,31.7,18.9,32.2,19.9,33.1z
	 M12.9,24.1c-0.3,0.1-0.5,0.3-0.6,0.5c-0.1,0.4-0.2,0.9-0.2,1.4v5.5h1.3c1.2,0.1,2.3-0.3,3.2-1.1c0.7-0.8,1.1-1.8,1-2.9
	c0-0.9-0.3-1.9-0.9-2.6C16,24.3,15,23.9,14,24C13.6,24,13.3,24,12.9,24.1L12.9,24.1z M18.2,40.4c0.7-0.9,1.1-2,1-3.1
	c0.1-1.3-0.4-2.6-1.2-3.6c-0.9-0.9-2.2-1.5-3.6-1.4c-0.6,0-1.4,0-2.2,0.1v7.2c0,0.4,0.1,0.8,0.2,1.2c0.2,0.3,0.5,0.5,0.9,0.6
	c0.6,0.1,1.2,0.2,1.8,0.2C16.2,41.6,17.4,41.2,18.2,40.4L18.2,40.4z"/>
<path class="st0" d="M26.9,39.4c0,0.4,0,0.8,0.2,1.2c0.1,0.3,0.4,0.4,0.6,0.5c0.5,0.1,1,0.2,1.5,0.1h3.2c1,0.1,1.9-0.3,2.7-1
	c0.7-0.8,1.2-1.8,1.3-2.8c0-0.1,0-0.1,0.2-0.1s0.2,0,0.2,0.1c-0.2,1.3-0.2,2.7-0.3,4c0,0.1,0,0.2-0.1,0.3s-0.2,0.1-0.3,0.1H22.5
	c0,0,0-0.1,0-0.2s0-0.2,0-0.2c0.5,0,1.1,0,1.6-0.1c0.3-0.1,0.6-0.3,0.7-0.6c0.1-0.4,0.2-0.9,0.2-1.3V26c0-0.4,0-0.9-0.2-1.3
	c-0.1-0.3-0.4-0.5-0.7-0.6c-0.5-0.1-1-0.1-1.6-0.1c0,0,0,0,0-0.2s0-0.2,0-0.2H24c0.8,0,1.5,0.1,2,0.1s1.2,0,2-0.1h1.4
	c0.1,0,0.1,0.1,0.1,0.2s0,0.2-0.1,0.2c-0.5,0-1.1,0-1.6,0.2c-0.3,0.1-0.6,0.3-0.7,0.6c-0.2,0.4-0.2,0.9-0.2,1.3L26.9,39.4z"/>
<path class="st0" d="M59,41.7c0,0.1,0,0.2-0.1,0.2c-0.4,0-0.9,0-1.7-0.1s-1.3-0.1-1.7-0.1s-1,0-1.6,0.1s-1.1,0.1-1.4,0.1
	c-0.1,0-0.1-0.1-0.1-0.2c0-0.1,0-0.2,0.1-0.2c0.5,0,1.1,0,1.6-0.2c0.3-0.1,0.5-0.4,0.5-0.7c0-0.4-0.2-0.9-0.4-1.2l-2.6-5.5h-7
	l-1.8,4.3c-0.2,0.5-0.4,1-0.4,1.6s0.3,1.1,0.8,1.3c0.7,0.3,1.4,0.5,2.1,0.4c0.1,0,0.1,0.1,0.2,0.2c0,0.1,0,0.2-0.2,0.2
	c-0.3,0-0.8,0-1.5-0.1s-1.4-0.1-1.9-0.1s-1.1,0-1.8,0.1s-1.1,0.1-1.5,0.1c-0.1,0-0.2-0.1-0.2-0.2s0-0.2,0.2-0.2c0.5,0,1-0.1,1.4-0.3
	c0.5-0.3,0.8-0.6,1.1-1.1c0.4-0.7,0.8-1.5,1.1-2.2l6.2-14.5c0-0.1,0.1-0.1,0.2-0.1c0.1,0,0.2,0,0.2,0.1l6.9,14.5c0.4,1,1,2,1.7,2.9
	c0.4,0.5,1,0.7,1.7,0.7C59,41.5,59,41.6,59,41.7z M44.8,33.3h6.5l-3.4-7.2L44.8,33.3z"/>
<path class="st0" d="M72,23.6c0.9,0.2,1.7,0.5,2.5,0.9c0.1,0,0.2,0.1,0.2,0.2s0.1,0.3,0.1,0.4l0.3,3.5c0,0,0,0.1-0.2,0.1
	s-0.2,0-0.2-0.1c-0.9-3.2-2.9-4.9-6-4.9c-1.5,0-3,0.3-4.3,1.1c-1.2,0.7-2.3,1.8-2.9,3.1c-0.7,1.4-1,3-1,4.7c0,1.6,0.4,3.2,1.1,4.7
	c0.7,1.4,1.7,2.5,3,3.3c1.2,0.8,2.7,1.2,4.2,1.2c1.4,0.1,2.8-0.3,3.9-1.2s1.9-2.2,2.3-3.6c0,0,0.1-0.1,0.2-0.1s0.2,0,0.2,0.1
	l-0.3,3.2c0,0.2,0,0.3-0.1,0.4c-0.1,0.1-0.1,0.1-0.2,0.2c-0.9,0.6-1.8,1-2.8,1.2s-2,0.3-3,0.3c-1.9,0-3.8-0.4-5.5-1.3
	c-1.5-0.8-2.8-1.9-3.8-3.4c-0.9-1.5-1.4-3.2-1.3-5c0-1.7,0.4-3.4,1.4-4.9c0.9-1.4,2.2-2.6,3.8-3.3c1.7-0.8,3.5-1.2,5.4-1.2
	C70,23.3,71,23.4,72,23.6z"/>
<path class="st0" d="M95.3,41.7c0,0.1,0,0.2-0.1,0.2h-4.1c-0.4,0-1-0.5-1.7-1.5s-1.4-1.9-2.1-2.8L82.9,32l-1,0.9v6.6
	c0,0.4,0,0.9,0.2,1.3c0.1,0.3,0.4,0.5,0.7,0.6c0.5,0.1,1.1,0.2,1.6,0.1c0.1,0,0.1,0.1,0.1,0.2c0,0.1,0,0.2-0.1,0.2
	c-0.6,0-1.1,0-1.4,0h-2h-2c-0.3,0-0.8,0-1.4,0c0,0-0.1-0.1-0.1-0.2c0-0.1,0-0.2,0.1-0.2c0.5,0,1.1,0,1.6-0.1
	c0.3-0.1,0.6-0.3,0.7-0.6c0.1-0.4,0.2-0.9,0.2-1.3V26c0-0.4,0-0.9-0.2-1.3c-0.1-0.3-0.4-0.5-0.7-0.6C78.6,24,78.1,24,77.5,24
	c0,0-0.1,0-0.1-0.2s0-0.2,0.1-0.2H79c0.8,0,1.5,0.1,2,0.1s1.2,0,2.1-0.1h1.4c0.1,0,0.1,0.1,0.1,0.2s0,0.2-0.1,0.2
	c-0.5,0-1.1,0-1.6,0.2c-0.3,0.1-0.6,0.3-0.7,0.6c-0.1,0.4-0.2,0.9-0.2,1.3v6.1l6.2-6.2c0.6-0.6,1-1.1,1-1.4S88.6,24,87.4,24
	c0,0-0.1,0-0.1-0.2s0-0.2,0.1-0.2h1.2c0.8,0,1.5,0.1,2.1,0.1s1.3,0,2-0.1h1.1c0.1,0,0.1,0.1,0.1,0.2s0,0.2-0.1,0.2
	c-0.9,0-1.7,0.2-2.5,0.5c-0.9,0.4-1.8,0.9-2.5,1.7l-4.6,4.5l4.2,5.4c1,1.4,2.1,2.7,3.3,3.9c0.5,0.6,1.1,1,1.7,1.3
	c0.6,0.2,1.2,0.2,1.8,0.2C95.3,41.5,95.3,41.6,95.3,41.7z"/>
<path class="st0" d="M122.3,41.7c0,0.1,0,0.2-0.1,0.2h-3.8c-0.5,0-1.4-0.8-2.7-2.4c-1.7-2.1-3.3-4.3-4.8-6.7
	c-0.5,0.1-1.1,0.2-1.6,0.2l-1.3-0.1v6.6c0,0.4,0,0.9,0.2,1.3c0.1,0.3,0.4,0.5,0.7,0.6c0.5,0.1,1.1,0.2,1.6,0.1c0,0,0.1,0.1,0.1,0.2
	s0,0.2-0.1,0.2c-0.6,0-1.1,0-1.4,0h-2h-2c-0.3,0-0.8,0-1.5,0c0,0-0.1-0.1-0.1-0.2c0-0.1,0-0.2,0.1-0.2c0.5,0,1.1,0,1.6-0.1
	c0.3-0.1,0.6-0.3,0.7-0.6c0.1-0.4,0.2-0.9,0.2-1.3V26c0-0.4,0-0.9-0.2-1.3c-0.1-0.3-0.4-0.5-0.7-0.6c-0.5-0.1-1.1-0.2-1.6-0.2
	c-0.1,0-0.1,0-0.1-0.2s0-0.2,0.1-0.2h1.4c0.8,0,1.5,0.1,2,0.1s0.8,0,1.2,0l0.9-0.1c0.7,0,1.4-0.1,2-0.1c1.3-0.1,2.5,0.3,3.6,1
	c0.8,0.7,1.3,1.7,1.2,2.8c0,1-0.3,2-0.9,2.8c-0.6,0.9-1.5,1.6-2.4,2c1.6,2.4,3,4.2,4.1,5.5c0.9,1.1,1.9,2.1,3,2.9
	c0.7,0.5,1.6,0.8,2.6,0.9C122.3,41.5,122.3,41.6,122.3,41.7z M109.7,32.3c1.2,0.1,2.3-0.2,3.2-1c0.7-0.8,1.1-1.9,1-3.1
	c0.1-1.2-0.2-2.4-1-3.3c-0.8-0.7-1.9-1.1-3-1c-0.6-0.1-1.1,0.1-1.6,0.4c-0.4,0.5-0.5,1.1-0.4,1.7v6.1
	C108.6,32.3,109.1,32.3,109.7,32.3z"/>
<path class="st0" d="M141,41.7c0,0.1,0,0.2-0.1,0.2c-0.4,0-0.9,0-1.7-0.1s-1.3-0.1-1.7-0.1s-1,0-1.6,0.1s-1.1,0.1-1.4,0.1
	c-0.1,0-0.1-0.1-0.1-0.2c0-0.1,0-0.2,0.1-0.2c0.5,0,1.1,0,1.6-0.2c0.3-0.1,0.5-0.4,0.5-0.7c0-0.4-0.2-0.9-0.4-1.2l-2.6-5.5h-6.9
	l-1.8,4.3c-0.2,0.5-0.4,1-0.4,1.6c0,0.5,0.2,1.1,0.7,1.3c0.7,0.3,1.4,0.5,2.2,0.4c0.1,0,0.2,0.1,0.2,0.2c0,0.1-0.1,0.2-0.2,0.2
	c-0.3,0-0.9,0-1.5-0.1s-1.4-0.1-1.9-0.1s-1.1,0-1.8,0.1s-1.1,0.1-1.4,0.1c-0.1,0-0.2-0.1-0.2-0.2s0-0.2,0.2-0.2c0.5,0,1-0.1,1.4-0.3
	c0.5-0.3,0.8-0.6,1.1-1.1c0.4-0.7,0.8-1.5,1.1-2.2l6.2-14.5c0-0.1,0.1-0.1,0.2-0.1c0.1,0,0.1,0,0.2,0.1l6.9,14.5c0.4,1,1,2,1.7,2.9
	c0.4,0.5,1,0.7,1.7,0.7C141,41.5,141,41.6,141,41.7z M126.8,33.3h6.5l-3.4-7.2L126.8,33.3z"/>
<path class="st0" d="M156.7,23.8c0,0.1,0,0.2-0.1,0.2c-0.6,0-1.2,0.2-1.7,0.5c-0.6,0.5-1,1.1-1.2,1.8l-6.2,15.6
	c0,0.1-0.1,0.1-0.3,0.1c-0.1,0-0.2,0-0.3-0.1l-7.3-15.8c-0.2-0.6-0.6-1.2-1.1-1.6c-0.4-0.3-0.9-0.5-1.4-0.4c-0.1,0-0.1,0-0.1-0.2
	s0-0.2,0.1-0.2h1.1c0.5,0,1,0.1,1.3,0.1c0.8,0,1.6,0,2.5-0.1h1.2c0.1,0,0.1,0.1,0.1,0.2s0,0.2-0.1,0.2c-1.2,0-1.8,0.3-1.8,1
	c0,0.3,0.1,0.6,0.3,0.9l6.1,13.4l5.3-13.2c0.1-0.3,0.2-0.7,0.2-1c0-0.4-0.2-0.7-0.6-0.9c-0.5-0.2-1.1-0.3-1.7-0.3
	c-0.1,0-0.1,0-0.1-0.2s0-0.2,0.1-0.2h1.3c0.7,0,1.3,0.1,1.8,0.1s0.9,0,1.4-0.1h1.2C156.6,23.6,156.7,23.7,156.7,23.8z"/>
<path class="st0" d="M170.9,37.5c0.1,0,0.1,0,0.2,0c0.1,0,0.1,0,0.1,0.1c-0.2,1.3-0.3,2.6-0.3,3.9c0,0.1,0,0.2-0.1,0.3
	s-0.2,0.1-0.4,0.1h-12.2c0,0-0.1-0.1-0.1-0.2s0-0.2,0.1-0.2c0.5,0,1.1,0,1.6-0.1c0.3-0.1,0.6-0.3,0.7-0.6c0.2-0.4,0.2-0.9,0.2-1.3
	V26c0-0.4,0-0.9-0.2-1.3c-0.1-0.3-0.4-0.5-0.7-0.6c-0.5-0.1-1.1-0.2-1.6-0.2c0,0-0.1,0-0.1-0.2s0-0.2,0.1-0.2H170
	c0.2,0,0.3,0.1,0.3,0.3l0.1,3.6l-0.1,0.1c0,0-0.2,0-0.2-0.1c0-0.9-0.3-1.7-0.9-2.4c-0.6-0.6-1.4-0.9-2.2-0.9h-2c-0.5,0-1,0-1.5,0.2
	c-0.3,0.1-0.5,0.3-0.7,0.5c-0.1,0.4-0.2,0.8-0.2,1.2v5.9h3.6c0.7,0.1,1.4-0.1,2-0.5c0.4-0.4,0.6-1,0.6-1.6c0,0,0.1-0.1,0.2-0.1
	s0.2,0,0.2,0.1v2.4c0,0.6,0,1,0,1.3v1.4c0,0,0,0.1-0.2,0.1s-0.2,0-0.2-0.1c0.1-0.7-0.2-1.3-0.6-1.8c-0.6-0.4-1.3-0.6-2.1-0.6h-3.5
	v6.7c0,0.4,0,0.8,0.2,1.2c0.1,0.3,0.4,0.5,0.6,0.5c0.5,0.1,1,0.2,1.5,0.1h2.3c0.9,0,1.7-0.3,2.3-1c0.7-0.8,1.1-1.7,1.3-2.7
	C170.8,37.5,170.9,37.5,170.9,37.5z"/>
<path class="st0" d="M191.6,23.8c0,0.1,0,0.2-0.1,0.2c-0.7-0.1-1.3,0.2-1.8,0.7c-0.4,0.6-0.6,1.4-0.6,2.2v15.4l-0.1,0.1
	c-0.1,0-0.1,0-0.2,0L175.4,26l-0.3-0.3v13c-0.1,0.8,0.1,1.5,0.5,2.2c0.4,0.5,1.1,0.7,1.7,0.7c0.1,0,0.1,0.1,0.1,0.2s0,0.2-0.1,0.2
	c-0.5,0-0.9,0-1.1,0h-1.5h-1.5c-0.3,0-0.7,0-1.2,0c-0.8,0,0-0.1,0-0.2s0-0.2,0-0.2c0.7,0.1,1.3-0.2,1.8-0.7c0.4-0.6,0.6-1.4,0.5-2.2
	V25c-0.6-0.6-1.4-1-2.3-1c0,0-0.1,0-0.1-0.2s0-0.2,0.1-0.2h1.1c0.2,0,0.6,0,1,0s0.8,0,1,0h0.6c0.1,0,0.2,0,0.3,0.1s0.2,0.3,0.3,0.5
	c0.2,0.4,0.5,0.7,0.7,1L188.5,39V26.8c0.1-0.8-0.1-1.5-0.5-2.2c-0.4-0.5-1.1-0.7-1.7-0.7c0,0-0.1,0-0.1-0.2s0-0.2,0.1-0.2h1.1
	c0.6,0,1.1,0.1,1.4,0.1s0.8,0,1.5-0.1h1.2C191.5,23.6,191.6,23.7,191.6,23.8z"/>
<rect x="20.1" y="54" class="st0" width="62.7" height="0.5"/>
<rect x="116.2" y="54" class="st0" width="62.7" height="0.5"/>
<path class="st0" d="M95.5,59l-1-2.2H90L89.1,59h-1.3l4-8.9h1.1l4,8.9H95.5z M90.5,55.8h3.6l-1.8-4.2L90.5,55.8z"/>
<path class="st0" d="M98,59v-8.9h5.7v1.1h-4.4V54h4.1v1h-4.1v4H98z"/>
<path class="st0" d="M106.6,58.5c-0.6-0.4-1.1-0.9-1.5-1.5c-0.4-0.8-0.5-1.6-0.5-2.4c0-0.8,0.2-1.7,0.5-2.4s0.8-1.2,1.5-1.6
	c0.7-0.4,1.5-0.6,2.3-0.6c0.6,0,1.1,0.1,1.7,0.3c0.5,0.2,1,0.5,1.3,0.8l-0.5,1c-0.4-0.3-0.8-0.6-1.2-0.8c-0.4-0.2-0.9-0.2-1.3-0.2
	c-0.8,0-1.6,0.3-2.1,0.9c-1,1.6-1,3.6,0,5.1c0.5,0.6,1.3,0.9,2.1,0.9c0.5,0,0.9-0.1,1.3-0.2c0.4-0.2,0.9-0.4,1.2-0.7l0.5,1
	c-0.4,0.4-0.8,0.6-1.3,0.8s-1.1,0.3-1.7,0.3C108,59.2,107.2,59,106.6,58.5z"/>
</svg>
